# xmcd
#
# Track frame offsets:
#	150
#	18983
#	42348
#	73973
#	97700
#	119634
#	140995
#	166882
#	196578
#	216032
#
# Disc length: 3205 seconds
#
# Revision: 1
# Processed by: cddbd v1.5.2PL0 Copyright (c) Steve Scherf et al.
# Submitted via: EZCDAudioConverter 8.0.2.1
#
DISCID=8d0c830a
DTITLE=Nguyên Khang - Vì Đó Là Em [CD2)
DYEAR=2004
DGENRE=
TTITLE0=Dạ khúc
TTITLE1=Bài không tên số 8
TTITLE2=Tâm sự gởi về đâu
TTITLE3=Chiếc lá cuối cùng
TTITLE4=Ru em từng ngón xuân nồng
TTITLE5=Khúc thụy du
TTITLE6=Có phải em mùa thu Hà Nội
TTITLE7=Tình khúc thứ nhất
TTITLE8=Hạ trắng
TTITLE9=Dốc mơ
EXTD=
EXTT0=
EXTT1=
EXTT2=
EXTT3=
EXTT4=
EXTT5=
EXTT6=
EXTT7=
EXTT8=
EXTT9=
PLAYORDER=
